<svg width="375" height="371" viewBox="0 0 375 371" fill="none" xmlns="http://www.w3.org/2000/svg">
<g id="icon">
<path id="Oval" opacity="0.15" d="M131.5 263C204.125 263 263 204.125 263 131.5C263 58.8746 204.125 0 131.5 0C58.8746 0 0 58.8746 0 131.5C0 204.125 58.8746 263 131.5 263Z" fill="url(#paint0_linear)"/>
<path id="Oval_2" opacity="0.15" d="M295.5 371C339.407 371 375 335.407 375 291.5C375 247.593 339.407 212 295.5 212C251.593 212 216 247.593 216 291.5C216 335.407 251.593 371 295.5 371Z" fill="url(#paint1_linear)"/>
<g id="Group">
<g id="Group_2">
<path id="Oval_3" d="M179.175 320.105C242.547 320.105 293.921 268.954 293.921 205.856C293.921 142.758 242.547 91.6064 179.175 91.6064C115.802 91.6064 64.4282 142.758 64.4282 205.856C64.4282 268.954 115.802 320.105 179.175 320.105Z" fill="white"/>
<path id="Shape" fill-rule="evenodd" clip-rule="evenodd" d="M63.1265 205.856C63.1265 269.552 115.202 321.402 179.175 321.402C243.148 321.402 295.223 269.552 295.223 205.856C295.223 142.16 243.148 90.3103 179.175 90.3103C115.202 90.3103 63.1265 142.16 63.1265 205.856ZM65.7664 205.856C65.7664 143.6 116.648 92.9388 179.175 92.9388C241.701 92.9388 292.583 143.6 292.583 205.856C292.583 268.112 241.701 318.773 179.175 318.773C116.648 318.773 65.7664 268.112 65.7664 205.856Z" fill="url(#paint2_linear)"/>
</g>
<path id="Oval_4" d="M179.175 293.641C227.868 293.641 267.341 254.338 267.341 205.856C267.341 157.374 227.868 118.072 179.175 118.072C130.482 118.072 91.0083 157.374 91.0083 205.856C91.0083 254.338 130.482 293.641 179.175 293.641Z" fill="url(#paint3_linear)"/>
<path id="Oval_5" d="M260.542 132.438C263.518 132.438 265.93 130.036 265.93 127.073C265.93 124.11 263.518 121.708 260.542 121.708C257.566 121.708 255.154 124.11 255.154 127.073C255.154 130.036 257.566 132.438 260.542 132.438Z" fill="url(#paint4_linear)"/>
<path id="Oval_6" d="M100.808 132.726C107.759 132.726 113.393 127.116 113.393 120.196C113.393 113.276 107.759 107.666 100.808 107.666C93.8581 107.666 88.2236 113.276 88.2236 120.196C88.2236 127.116 93.8581 132.726 100.808 132.726Z" fill="url(#paint5_linear)"/>
<path id="Oval_7" d="M254.069 301.598C258.962 301.598 262.929 297.649 262.929 292.776C262.929 287.904 258.962 283.955 254.069 283.955C249.176 283.955 245.209 287.904 245.209 292.776C245.209 297.649 249.176 301.598 254.069 301.598Z" fill="url(#paint6_linear)"/>
<g id="Group_3">
<rect id="Rectangle" x="145.181" y="246.796" width="68.0233" height="3.1686" fill="white"/>
<rect id="Rectangle_2" x="177.584" y="176.475" width="3.18238" height="69.133" fill="white"/>
<path id="Path" d="M135.887 177.843C127.642 177.843 122.652 174.134 122.362 173.918L124.279 171.398L123.303 172.658L124.279 171.398C124.604 171.65 132.597 177.483 145.109 173.018C154.295 169.741 162.034 167.941 170.243 167.185L170.532 170.317C162.612 171.038 155.09 172.766 146.158 175.97C142.361 177.339 138.925 177.843 135.887 177.843Z" fill="white"/>
<path id="Shape_2" fill-rule="evenodd" clip-rule="evenodd" d="M132.416 216.262C132.669 216.514 139.07 222.743 146.519 222.743C153.969 222.743 160.37 216.514 160.623 216.262C161.925 214.966 162.431 212.661 161.816 210.933L148.762 175.07C148.147 173.342 146.989 173.162 146.519 173.162C146.049 173.162 144.892 173.342 144.277 175.07L131.222 210.933C130.571 212.661 131.078 214.966 132.416 216.262ZM134.188 211.977L146.519 178.131L158.851 211.977C159.032 212.553 158.815 213.561 158.381 213.994C158.345 214.066 152.667 219.575 146.519 219.575C140.408 219.575 134.694 214.03 134.658 213.994C134.188 213.561 133.971 212.553 134.188 211.977Z" fill="white"/>
<rect id="Rectangle_3" x="133.211" y="210.357" width="26.5801" height="3.1686" fill="white"/>
<path id="Path_2" d="M222.462 177.843C219.425 177.843 215.989 177.339 212.156 175.97C203.26 172.802 195.738 171.038 187.782 170.317L188.071 167.185C196.28 167.941 204.055 169.741 213.205 173.018C225.753 177.483 233.709 171.65 234.035 171.398L235.951 173.918C235.698 174.134 230.708 177.843 222.462 177.843Z" fill="white"/>
<path id="Shape_3" fill-rule="evenodd" clip-rule="evenodd" d="M211.83 222.743C204.381 222.743 197.98 216.514 197.727 216.262C196.389 214.966 195.882 212.661 196.533 210.933L209.588 175.07C210.203 173.342 211.36 173.162 211.83 173.162C212.301 173.162 213.458 173.342 214.073 175.07L227.128 210.933C227.778 212.661 227.236 214.966 225.934 216.262C225.681 216.514 219.28 222.743 211.83 222.743ZM211.83 178.131L199.499 212.013C199.282 212.589 199.499 213.597 199.969 214.03C200.005 214.066 205.719 219.611 211.83 219.611C217.978 219.611 223.656 214.102 223.728 214.03C224.162 213.597 224.379 212.589 224.198 212.013L211.83 178.131ZM212.481 176.078L211.071 175.574L212.626 175.934C212.615 175.945 212.604 175.959 212.592 175.975C212.565 176.011 212.532 176.053 212.481 176.078Z" fill="white"/>
<rect id="Rectangle_4" x="198.559" y="210.357" width="26.5801" height="3.1686" fill="white"/>
<path id="Path_3" d="M188.831 168.409H185.648C185.648 164.844 182.719 161.928 179.139 161.928C175.559 161.928 172.63 164.844 172.63 168.409H169.447C169.447 163.08 173.787 158.795 179.103 158.795C184.419 158.795 188.831 163.116 188.831 168.409Z" fill="white"/>
<path id="Path_4" d="M179.175 178.059C173.823 178.059 169.52 173.738 169.52 168.445H172.702C172.702 172.01 175.631 174.926 179.211 174.926C182.791 174.926 185.721 172.01 185.721 168.445H188.903C188.831 173.738 184.491 178.059 179.175 178.059Z" fill="white"/>
</g>
</g>
</g>
<defs>
<linearGradient id="paint0_linear" x1="262.987" y1="263.019" x2="262.987" y2="0.0132936" gradientUnits="userSpaceOnUse">
<stop offset="0.00495049" stop-color="#A0CCED"/>
<stop offset="1" stop-color="#4199DB"/>
</linearGradient>
<linearGradient id="paint1_linear" x1="374.992" y1="371.004" x2="374.992" y2="212.024" gradientUnits="userSpaceOnUse">
<stop offset="0.00495049" stop-color="#A0CCED"/>
<stop offset="1" stop-color="#4199DB"/>
</linearGradient>
<linearGradient id="paint2_linear" x1="295.225" y1="321.403" x2="295.225" y2="90.3038" gradientUnits="userSpaceOnUse">
<stop offset="0.00495049" stop-color="#A0CCED"/>
<stop offset="1" stop-color="#4199DB"/>
</linearGradient>
<linearGradient id="paint3_linear" x1="267.349" y1="293.649" x2="267.349" y2="118.058" gradientUnits="userSpaceOnUse">
<stop offset="0.00495049" stop-color="#A0CCED"/>
<stop offset="1" stop-color="#4199DB"/>
</linearGradient>
<linearGradient id="paint4_linear" x1="265.922" y1="132.435" x2="265.922" y2="121.717" gradientUnits="userSpaceOnUse">
<stop offset="0.00495049" stop-color="#9BE2B9"/>
<stop offset="1" stop-color="#3FC779"/>
</linearGradient>
<linearGradient id="paint5_linear" x1="113.382" y1="132.726" x2="113.382" y2="107.681" gradientUnits="userSpaceOnUse">
<stop offset="0.00495049" stop-color="#FEADAD"/>
<stop offset="1" stop-color="#E85A5A"/>
</linearGradient>
<linearGradient id="paint6_linear" x1="262.935" y1="301.596" x2="262.935" y2="283.928" gradientUnits="userSpaceOnUse">
<stop offset="0.00495049" stop-color="#C6B5ED"/>
<stop offset="1" stop-color="#906DDF"/>
</linearGradient>
</defs>
</svg>
