<svg width="410" height="270" viewBox="0 0 410 270" fill="none" xmlns="http://www.w3.org/2000/svg">
<g id="icon">
<path id="Oval" opacity="0.15" d="M132.5 263C205.402 263 264.5 204.125 264.5 131.5C264.5 58.8746 205.402 0 132.5 0C59.5984 0 0.5 58.8746 0.5 131.5C0.5 204.125 59.5984 263 132.5 263Z" fill="url(#paint0_linear)"/>
<path id="Oval_2" opacity="0.15" d="M343 264C379.727 264 409.5 234.451 409.5 198C409.5 161.549 379.727 132 343 132C306.273 132 276.5 161.549 276.5 198C276.5 234.451 306.273 264 343 264Z" fill="url(#paint1_linear)"/>
<g id="Group">
<g id="Group_2">
<path id="Oval_3" d="M209.296 267.505C272.408 267.505 323.571 216.381 323.571 153.317C323.571 90.2526 272.408 39.1288 209.296 39.1288C146.184 39.1288 95.021 90.2526 95.021 153.317C95.021 216.381 146.184 267.505 209.296 267.505Z" fill="white"/>
<path id="Shape" fill-rule="evenodd" clip-rule="evenodd" d="M93.7246 153.317C93.7246 216.979 145.586 268.801 209.296 268.801C273.043 268.801 324.868 216.979 324.868 153.317C324.868 89.6552 273.007 37.8333 209.296 37.8333C145.586 37.8333 93.7246 89.6192 93.7246 153.317ZM96.3537 153.281C96.3537 91.0587 147.027 40.4244 209.296 40.4244C271.566 40.4244 322.239 91.0587 322.239 153.281C322.239 215.503 271.566 266.138 209.296 266.138C147.027 266.138 96.3537 215.503 96.3537 153.281Z" fill="url(#paint2_linear)"/>
</g>
<path id="Oval_4" d="M209.296 241.054C257.789 241.054 297.101 201.773 297.101 153.317C297.101 104.861 257.789 65.5796 209.296 65.5796C160.803 65.5796 121.492 104.861 121.492 153.317C121.492 201.773 160.803 241.054 209.296 241.054Z" fill="url(#paint3_linear)"/>
<path id="Oval_5" d="M105.393 202.332C112.196 202.332 117.71 196.821 117.71 190.024C117.71 183.227 112.196 177.716 105.393 177.716C98.5907 177.716 93.0762 183.227 93.0762 190.024C93.0762 196.821 98.5907 202.332 105.393 202.332Z" fill="url(#paint4_linear)"/>
<path id="Oval_6" d="M257.844 35.782C261.026 35.782 263.606 33.2041 263.606 30.024C263.606 26.844 261.026 24.2661 257.844 24.2661C254.661 24.2661 252.082 26.844 252.082 30.024C252.082 33.2041 254.661 35.782 257.844 35.782Z" fill="url(#paint5_linear)"/>
<path id="Oval_7" d="M290.437 243.429C295.311 243.429 299.261 239.482 299.261 234.613C299.261 229.743 295.311 225.796 290.437 225.796C285.564 225.796 281.614 229.743 281.614 234.613C281.614 239.482 285.564 243.429 290.437 243.429Z" fill="url(#paint6_linear)"/>
<g id="Group_3">
<path id="Path" d="M240.989 156.952C235.083 156.952 229.393 156.196 224.927 154.828L225.863 151.806C230.005 153.101 235.407 153.785 240.989 153.785C254.423 153.785 262.994 149.862 262.994 147.127H266.164C266.164 153.533 253.198 156.952 240.989 156.952Z" fill="white"/>
<path id="Path_2" d="M240.989 181.423C228.78 181.423 215.815 178.004 215.815 171.635V169.583H218.984V171.635C218.984 174.406 227.376 178.292 240.989 178.292C254.603 178.292 262.994 174.406 262.994 171.635V134.963H266.164V171.635C266.164 178.004 253.198 181.423 240.989 181.423Z" fill="white"/>
<g id="Group_4">
<g id="Group_5">
<path id="Shape_2" fill-rule="evenodd" clip-rule="evenodd" d="M152.465 134.999C152.465 141.369 165.43 144.788 177.639 144.788C189.812 144.788 202.778 141.333 202.814 134.999C202.814 128.63 189.848 125.211 177.639 125.211C165.43 125.211 152.465 128.63 152.465 134.999ZM155.634 134.963C155.634 132.192 163.99 128.306 177.639 128.306C191.253 128.306 199.644 132.192 199.644 134.963C199.644 137.698 191.073 141.621 177.639 141.621C164.206 141.621 155.634 137.662 155.634 134.963Z" fill="white"/>
<path id="Path_3" d="M177.639 156.952C165.43 156.952 152.465 153.533 152.465 147.163H155.634C155.634 149.862 164.206 153.821 177.639 153.821C183.005 153.821 188.228 153.173 192.333 151.985L193.234 155.008C188.804 156.268 183.294 156.952 177.639 156.952Z" fill="white"/>
<path id="Path_4" d="M177.639 169.259C165.43 169.259 152.465 165.841 152.465 159.471H155.634C155.634 162.242 164.026 166.128 177.639 166.128C184.194 166.128 190.424 165.157 194.746 163.465L195.899 166.416C191.217 168.18 184.554 169.259 177.639 169.259Z" fill="white"/>
<rect id="Rectangle" x="199.644" y="134.963" width="3.16931" height="6.83761" fill="white"/>
</g>
<path id="Path_5" d="M209.296 173.362C206.163 173.362 203.102 172.534 200.437 170.987L202.021 168.252C204.218 169.547 206.739 170.195 209.296 170.195C217.291 170.195 223.81 163.681 223.81 155.692C223.81 150.402 220.929 145.508 216.283 142.953L217.796 140.182C223.45 143.276 226.979 149.214 226.979 155.656C226.979 165.445 219.056 173.362 209.296 173.362Z" fill="white"/>
<path id="Path_6" d="M177.639 181.423C165.43 181.423 152.465 178.004 152.465 171.635V134.963H155.634V171.635C155.634 174.406 164.026 178.292 177.639 178.292C191.289 178.292 199.644 174.406 199.644 171.635V170.483C194.674 167.244 191.649 161.666 191.649 155.692C191.649 145.94 199.572 138.022 209.332 138.022C212.285 138.022 215.239 138.778 217.832 140.182L216.319 142.953C214.194 141.801 211.781 141.153 209.332 141.153C201.337 141.153 194.818 147.667 194.818 155.656C194.818 160.802 197.591 165.625 202.057 168.216L202.85 168.684L202.814 171.635C202.778 178.004 189.812 181.423 177.639 181.423Z" fill="white"/>
<path id="Shape_3" fill-rule="evenodd" clip-rule="evenodd" d="M215.815 134.999C215.815 141.369 228.78 144.788 240.989 144.788C253.198 144.788 266.164 141.333 266.164 134.999C266.164 128.63 253.198 125.211 240.989 125.211C228.78 125.211 215.815 128.63 215.815 134.999ZM218.984 134.963C218.984 132.192 227.34 128.306 240.989 128.306C254.603 128.306 262.994 132.192 262.994 134.963C262.994 137.698 254.423 141.621 240.989 141.621C227.556 141.621 218.984 137.662 218.984 134.963Z" fill="white"/>
<path id="Path_7" d="M240.989 169.259C234.111 169.259 227.52 168.216 222.874 166.416L224.026 163.465C228.312 165.121 234.507 166.093 240.989 166.093C254.639 166.093 262.995 162.206 262.995 159.435H266.164C266.164 165.805 253.199 169.259 240.989 169.259Z" fill="white"/>
<rect id="Rectangle_2" x="215.815" y="134.963" width="3.16931" height="6.83761" fill="white"/>
<g id="Group_6">
<path id="Rectangle_3" d="M209.729 148.909L212.253 146.994L218.045 154.619L215.521 156.533L209.729 148.909Z" fill="white"/>
<path id="Rectangle_4" d="M210.292 162.828L216.092 155.209L218.615 157.126L212.814 164.745L210.292 162.828Z" fill="white"/>
<rect id="Rectangle_5" x="201.553" y="154.109" width="15.4504" height="3.16689" fill="white"/>
</g>
</g>
</g>
</g>
</g>
<defs>
<linearGradient id="paint0_linear" x1="264.512" y1="263.012" x2="264.512" y2="0.00611378" gradientUnits="userSpaceOnUse">
<stop offset="0.00495049" stop-color="#FEADAD"/>
<stop offset="1" stop-color="#E85A5A"/>
</linearGradient>
<linearGradient id="paint1_linear" x1="409.494" y1="264.007" x2="409.494" y2="132.009" gradientUnits="userSpaceOnUse">
<stop offset="0.00495049" stop-color="#FEADAD"/>
<stop offset="1" stop-color="#E85A5A"/>
</linearGradient>
<linearGradient id="paint2_linear" x1="324.877" y1="268.786" x2="324.877" y2="37.8121" gradientUnits="userSpaceOnUse">
<stop offset="0.00495049" stop-color="#FEADAD"/>
<stop offset="1" stop-color="#E85A5A"/>
</linearGradient>
<linearGradient id="paint3_linear" x1="297.117" y1="241.048" x2="297.117" y2="65.5512" gradientUnits="userSpaceOnUse">
<stop offset="0.00495049" stop-color="#FEADAD"/>
<stop offset="1" stop-color="#E85A5A"/>
</linearGradient>
<linearGradient id="paint4_linear" x1="117.711" y1="202.333" x2="117.711" y2="177.683" gradientUnits="userSpaceOnUse">
<stop offset="0.00495049" stop-color="#9BE2B9"/>
<stop offset="1" stop-color="#3FC779"/>
</linearGradient>
<linearGradient id="paint5_linear" x1="263.621" y1="35.7932" x2="263.621" y2="24.2772" gradientUnits="userSpaceOnUse">
<stop offset="0.00495049" stop-color="#FFCDA8"/>
<stop offset="1" stop-color="#FE9F55"/>
</linearGradient>
<linearGradient id="paint6_linear" x1="299.288" y1="243.44" x2="299.288" y2="225.781" gradientUnits="userSpaceOnUse">
<stop offset="0.00495049" stop-color="#C6B5ED"/>
<stop offset="1" stop-color="#906DDF"/>
</linearGradient>
</defs>
</svg>
