<svg width="14" height="11" viewBox="0 0 14 11" fill="none" xmlns="http://www.w3.org/2000/svg">
<path fill-rule="evenodd" clip-rule="evenodd" d="M6.04013 0C6.41032 0 6.6638 0.287294 6.60363 0.638388L4.93817 10.3355C4.878 10.6866 4.52571 10.9739 4.15552 10.9739H0.538535C0.168343 10.9739 -0.0299457 10.7007 0.0979389 10.3665L3.83379 0.6072C3.96167 0.273188 4.36915 0 4.73934 0H6.04013ZM13.3055 0C13.6757 0 13.9293 0.287294 13.8688 0.638388L12.2035 10.3353C12.1433 10.6864 11.791 10.9737 11.4208 10.9737H7.804C7.4338 10.9737 7.23552 10.7005 7.3634 10.3665L11.0991 0.6072C11.227 0.273188 11.6345 0 12.0047 0H13.3055Z" fill="#FFD759"/>
</svg>
