<svg width="100" height="100" viewBox="0 0 100 100" fill="none" xmlns="http://www.w3.org/2000/svg">
<g id="icon">
<g id="Group">
<path id="Oval" d="M50.0534 98.8068C77.0426 98.8068 98.9218 76.9277 98.9218 49.9384C98.9218 22.9492 77.0426 1.07007 50.0534 1.07007C23.0642 1.07007 1.18506 22.9492 1.18506 49.9384C1.18506 76.9277 23.0642 98.8068 50.0534 98.8068Z" fill="white"/>
<path id="Shape" fill-rule="evenodd" clip-rule="evenodd" d="M0.383789 49.9693C0.383789 77.3614 22.6611 99.6387 50.0533 99.6387C77.4454 99.6387 99.7227 77.3614 99.7227 49.9693C99.7227 22.5771 77.4454 0.299805 50.0533 0.299805C22.6611 0.299805 0.383789 22.5771 0.383789 49.9693ZM1.98603 49.9385C1.98603 23.4399 23.5547 1.87123 50.0533 1.87123C76.5519 1.87123 98.1205 23.4399 98.1205 49.9385C98.1205 76.4371 76.5519 98.0057 50.0533 98.0057C23.5547 98.0057 1.98603 76.4371 1.98603 49.9385Z" fill="url(#paint0_linear)"/>
</g>
<path id="Oval_2" d="M50.5 88C71.2107 88 88 71.2107 88 50.5C88 29.7893 71.2107 13 50.5 13C29.7893 13 13 29.7893 13 50.5C13 71.2107 29.7893 88 50.5 88Z" fill="url(#paint1_linear)"/>
<g id="Group_2">
<path id="Shape_2" fill-rule="evenodd" clip-rule="evenodd" d="M35.9775 68.8526H65.6007C67.0435 68.8526 68.21 67.6727 68.21 66.2134V37.3379C68.21 35.8786 67.0435 34.6987 65.6007 34.6987H35.9775C34.5347 34.6987 33.3682 35.8786 33.3682 37.3379V66.2134C33.3682 67.6727 34.5347 68.8526 35.9775 68.8526ZM34.9337 37.3379C34.9337 36.779 35.3942 36.3133 35.9468 36.3133H65.57C66.1226 36.3133 66.583 36.779 66.583 37.3379V66.2134C66.583 66.7723 66.1226 67.238 65.57 67.238H35.9468C35.3942 67.238 34.9337 66.7723 34.9337 66.2134V37.3379Z" fill="white"/>
<g id="Group_3">
<path id="Path" d="M50.7737 38.021C50.3439 38.021 49.9755 37.6484 49.9755 37.2137V33.5499C49.9755 33.1153 50.3439 32.7427 50.7737 32.7427C51.2034 32.7427 51.5718 33.1153 51.5718 33.5499V37.2137C51.5718 37.6795 51.2034 38.021 50.7737 38.021Z" fill="white"/>
<g id="Group_4">
<path id="Path_2" d="M42.301 38.021C41.8712 38.021 41.5029 37.6484 41.5029 37.2137V33.5499C41.5029 33.1153 41.8712 32.7427 42.301 32.7427C42.7308 32.7427 43.0991 33.1153 43.0991 33.5499V37.2137C43.0991 37.6795 42.7308 38.021 42.301 38.021Z" fill="white"/>
<path id="Path_3" d="M59.2463 38.021C58.8165 38.021 58.4482 37.6484 58.4482 37.2137V33.5499C58.4482 33.1153 58.8165 32.7427 59.2463 32.7427C59.6761 32.7427 60.0444 33.1153 60.0444 33.5499V37.2137C60.0444 37.6795 59.6761 38.021 59.2463 38.021Z" fill="white"/>
</g>
</g>
<path id="Shape_3" fill-rule="evenodd" clip-rule="evenodd" d="M62.4388 48.3912H56.3914V44.0754H62.4388V48.3912ZM62.4388 55.0668H56.3914V50.751H62.4388V55.0668ZM45.4937 61.7733H39.4463V57.4575H45.4937V61.7733ZM53.9663 61.7733H47.9188V57.4575H53.9663V61.7733ZM56.3914 61.7733H62.4388V57.4575H56.3914V61.7733ZM60.8426 60.1588H58.0184V59.0721H60.8426V60.1588ZM52.3393 60.1588H49.5151V59.0721H52.3393V60.1588ZM43.8668 60.1588H41.0426V59.0721H43.8668V60.1588ZM60.8426 53.4522H58.0184V52.3655H60.8426V53.4522ZM53.9663 55.0668H47.9188V50.751H53.9663V55.0668ZM52.3393 53.4522H49.5151V52.3655H52.3393V53.4522ZM45.4937 55.0668H39.4463V50.751H45.4937V55.0668ZM43.8668 53.4522H41.0426V52.3655H43.8668V53.4522ZM60.8426 46.7456H58.0184V45.6589H60.8426V46.7456ZM53.9663 48.3912H47.9188V44.0754H53.9663V48.3912ZM52.3393 46.7456H49.5151V45.6589H52.3393V46.7456ZM45.4937 48.3912H39.4463V44.0754H45.4937V48.3912ZM43.8668 46.7456H41.0426V45.6589H43.8668V46.7456Z" fill="white"/>
</g>
</g>
<defs>
<linearGradient id="paint0_linear" x1="0.367922" y1="0.268684" x2="0.367922" y2="99.6369" gradientUnits="userSpaceOnUse">
<stop offset="0.00495049" stop-color="#FEADAD"/>
<stop offset="1" stop-color="#E85A5A"/>
</linearGradient>
<linearGradient id="paint1_linear" x1="88.0051" y1="88.0209" x2="88.0051" y2="13.0077" gradientUnits="userSpaceOnUse">
<stop offset="0.00495049" stop-color="#FEADAD"/>
<stop offset="1" stop-color="#E85A5A"/>
</linearGradient>
</defs>
</svg>
