<svg width="329" height="369" viewBox="0 0 329 369" fill="none" xmlns="http://www.w3.org/2000/svg">
<g id="icon">
<path id="Oval" opacity="0.15" d="M202.5 369C272.088 369 328.5 312.588 328.5 243C328.5 173.412 272.088 117 202.5 117C132.912 117 76.5 173.412 76.5 243C76.5 312.588 132.912 369 202.5 369Z" fill="url(#paint0_linear)"/>
<path id="Oval_2" opacity="0.15" d="M86 169C133.22 169 171.5 131.168 171.5 84.5C171.5 37.8319 133.22 0 86 0C38.7797 0 0.5 37.8319 0.5 84.5C0.5 131.168 38.7797 169 86 169Z" fill="url(#paint1_linear)"/>
<g id="Group">
<g id="Group_2">
<path id="Oval_3" d="M159.104 273.154C219.369 273.154 268.224 224.202 268.224 163.815C268.224 103.429 219.369 54.4763 159.104 54.4763C98.8386 54.4763 49.9839 103.429 49.9839 163.815C49.9839 224.202 98.8386 273.154 159.104 273.154Z" fill="white"/>
<path id="Shape" fill-rule="evenodd" clip-rule="evenodd" d="M48.7456 163.815C48.7456 224.774 98.2675 274.395 159.104 274.395C219.94 274.395 269.462 224.774 269.462 163.815C269.462 102.857 219.94 53.2358 159.104 53.2358C98.2675 53.2358 48.7456 102.823 48.7456 163.815ZM51.2561 163.815C51.2561 104.235 99.6431 55.7514 159.104 55.7514C218.564 55.7514 266.952 104.235 266.952 163.815C266.952 223.395 218.564 271.879 159.104 271.879C99.6431 271.879 51.2561 223.395 51.2561 163.815Z" fill="url(#paint2_linear)"/>
</g>
<path id="Oval_4" d="M159.104 247.827C205.409 247.827 242.947 210.214 242.947 163.815C242.947 117.417 205.409 79.8038 159.104 79.8038C112.799 79.8038 75.2607 117.417 75.2607 163.815C75.2607 210.214 112.799 247.827 159.104 247.827Z" fill="url(#paint3_linear)"/>
<path id="Oval_5" d="M78.5963 80.0106C81.9581 80.0106 84.6834 77.2798 84.6834 73.9113C84.6834 70.5428 81.9581 67.812 78.5963 67.812C75.2346 67.812 72.5093 70.5428 72.5093 73.9113C72.5093 77.2798 75.2346 80.0106 78.5963 80.0106Z" fill="url(#paint4_linear)"/>
<path id="Oval_6" d="M113.675 275.773C118.955 275.773 123.235 271.484 123.235 266.194C123.235 260.903 118.955 256.614 113.675 256.614C108.395 256.614 104.114 260.903 104.114 266.194C104.114 271.484 108.395 275.773 113.675 275.773Z" fill="url(#paint5_linear)"/>
<path id="Oval_7" d="M251.579 119.983C258.189 119.983 263.547 114.614 263.547 107.991C263.547 101.369 258.189 95.9996 251.579 95.9996C244.969 95.9996 239.611 101.369 239.611 107.991C239.611 114.614 244.969 119.983 251.579 119.983Z" fill="url(#paint6_linear)"/>
<g id="Group_3">
<path id="Shape_2" fill-rule="evenodd" clip-rule="evenodd" d="M117.561 203.478H153.567C158.347 203.478 162.199 199.584 162.199 194.829V158.75C162.199 153.994 158.313 150.101 153.567 150.101H117.561C112.815 150.101 108.929 153.994 108.929 158.75V194.829C108.929 199.584 112.815 203.478 117.561 203.478ZM111.989 158.75C111.989 155.649 114.5 153.133 117.595 153.133H153.602C156.697 153.133 159.207 155.649 159.207 158.75V194.829C159.207 197.93 156.697 200.445 153.602 200.445H117.595C114.5 200.445 111.989 197.93 111.989 194.829V158.75Z" fill="white"/>
<g id="Group_4">
<path id="Shape_3" fill-rule="evenodd" clip-rule="evenodd" d="M117.939 166.675C117.939 168.502 119.418 169.983 121.241 169.983C123.064 169.983 124.542 168.502 124.542 166.675C124.542 164.849 123.064 163.367 121.241 163.367C119.418 163.367 117.939 164.849 117.939 166.675ZM120.966 166.641C120.966 166.503 121.069 166.365 121.241 166.365C121.413 166.365 121.55 166.503 121.55 166.641C121.55 166.951 120.966 166.951 120.966 166.641Z" fill="white"/>
<path id="Shape_4" fill-rule="evenodd" clip-rule="evenodd" d="M117.939 186.937C117.939 188.764 119.418 190.246 121.241 190.246C123.064 190.246 124.542 188.764 124.542 186.937C124.542 185.111 123.064 183.629 121.241 183.629C119.418 183.629 117.939 185.111 117.939 186.937ZM120.966 186.903C120.966 186.765 121.069 186.627 121.241 186.627C121.413 186.627 121.55 186.765 121.55 186.903C121.55 187.213 120.966 187.213 120.966 186.903Z" fill="white"/>
<g id="Group_5">
<rect id="Rectangle" x="128.669" y="165.159" width="23.0071" height="3.03241" fill="white"/>
<rect id="Rectangle_2" x="128.669" y="185.421" width="23.0071" height="3.03241" fill="white"/>
<rect id="Rectangle_3" x="128.669" y="175.29" width="23.0071" height="3.03241" fill="white"/>
</g>
<path id="Shape_5" fill-rule="evenodd" clip-rule="evenodd" d="M117.939 176.806C117.939 178.633 119.418 180.115 121.241 180.115C123.064 180.115 124.542 178.633 124.542 176.806C124.542 174.98 123.064 173.498 121.241 173.498C119.418 173.498 117.939 174.98 117.939 176.806ZM120.966 176.772C120.966 176.634 121.069 176.496 121.241 176.496C121.413 176.496 121.55 176.634 121.55 176.772C121.55 177.082 120.966 177.082 120.966 176.772Z" fill="white"/>
</g>
<path id="Path" d="M210.586 153.03H167.495V119.949H170.521V149.997H210.586V153.03Z" fill="white"/>
<g id="Group_6">
<path id="Path_2" d="M177.572 142.072L175.439 139.935L179.36 135.972C180.632 134.697 182.352 133.974 184.209 133.974C184.209 133.974 184.209 133.974 184.243 133.974C186.272 133.974 188.267 134.801 189.711 136.282C190.468 137.041 191.534 137.454 192.703 137.454C194.113 137.454 195.558 136.834 196.624 135.731L201.404 130.872L203.536 133.009L198.756 137.868C197.105 139.522 194.904 140.486 192.703 140.486C192.703 140.486 192.703 140.486 192.669 140.486C190.709 140.486 188.886 139.763 187.545 138.419C186.651 137.523 185.413 137.006 184.209 137.006C183.143 137.006 182.18 137.385 181.492 138.109L177.572 142.072Z" fill="white"/>
<path id="Shape_6" fill-rule="evenodd" clip-rule="evenodd" d="M204.224 137.557C204.568 137.902 205.084 138.109 205.565 138.109C205.806 138.109 206.047 138.04 206.287 137.971C207.01 137.695 207.457 137.006 207.457 136.214V126.875H198.171C197.415 126.875 196.727 127.323 196.417 128.047C196.108 128.77 196.28 129.597 196.83 130.149L204.224 137.557ZM204.43 133.491L200.819 129.873H204.43V133.491Z" fill="white"/>
</g>
</g>
</g>
</g>
<defs>
<linearGradient id="paint0_linear" x1="328.486" y1="369.016" x2="328.486" y2="117.01" gradientUnits="userSpaceOnUse">
<stop offset="0.00495049" stop-color="#C6B5ED"/>
<stop offset="1" stop-color="#906DDF"/>
</linearGradient>
<linearGradient id="paint1_linear" x1="171.497" y1="169.004" x2="171.497" y2="-0.0178017" gradientUnits="userSpaceOnUse">
<stop offset="0.00495049" stop-color="#C6B5ED"/>
<stop offset="1" stop-color="#906DDF"/>
</linearGradient>
<linearGradient id="paint2_linear" x1="269.466" y1="274.396" x2="269.466" y2="53.2296" gradientUnits="userSpaceOnUse">
<stop offset="0.00495049" stop-color="#C6B5ED"/>
<stop offset="1" stop-color="#906DDF"/>
</linearGradient>
<linearGradient id="paint3_linear" x1="242.959" y1="247.835" x2="242.959" y2="79.7907" gradientUnits="userSpaceOnUse">
<stop offset="0.00495049" stop-color="#C6B5ED"/>
<stop offset="1" stop-color="#906DDF"/>
</linearGradient>
<linearGradient id="paint4_linear" x1="84.6913" y1="80.0188" x2="84.6913" y2="67.8058" gradientUnits="userSpaceOnUse">
<stop offset="0.00495049" stop-color="#FFFAA7"/>
<stop offset="1" stop-color="#FFD85C"/>
</linearGradient>
<linearGradient id="paint5_linear" x1="123.235" y1="275.769" x2="123.235" y2="256.583" gradientUnits="userSpaceOnUse">
<stop offset="0.00495049" stop-color="#A0CCED"/>
<stop offset="1" stop-color="#4199DB"/>
</linearGradient>
<linearGradient id="paint6_linear" x1="263.541" y1="119.981" x2="263.541" y2="96.0117" gradientUnits="userSpaceOnUse">
<stop offset="0.00495049" stop-color="#FEADAD"/>
<stop offset="1" stop-color="#E85A5A"/>
</linearGradient>
</defs>
</svg>
