<svg width="100" height="100" viewBox="0 0 100 100" fill="none" xmlns="http://www.w3.org/2000/svg">
<g id="icon">
<g id="Group">
<path id="Oval" d="M49.816 98.8275C76.8168 98.8275 98.7052 76.9391 98.7052 49.9383C98.7052 22.9375 76.8168 1.04907 49.816 1.04907C22.8152 1.04907 0.926758 22.9375 0.926758 49.9383C0.926758 76.9391 22.8152 98.8275 49.816 98.8275Z" fill="white"/>
<path id="Shape" fill-rule="evenodd" clip-rule="evenodd" d="M0.125488 49.9691C0.125488 77.373 22.4123 99.6598 49.8162 99.6598C77.2201 99.6598 99.5377 77.373 99.5069 49.9691C99.5069 22.5344 77.2201 0.247559 49.8162 0.247559C22.4123 0.247559 0.125488 22.5652 0.125488 49.9691ZM1.72841 49.9383C1.72841 23.4283 23.3063 1.85048 49.8162 1.85048C76.3569 1.85048 97.904 23.4283 97.904 49.9383C97.904 76.4482 76.3261 98.026 49.8162 98.026C23.3063 98.026 1.72841 76.4482 1.72841 49.9383Z" fill="url(#paint0_linear)"/>
</g>
<path id="Oval_2" d="M49.5 87C70.2107 87 87 70.2107 87 49.5C87 28.7893 70.2107 12 49.5 12C28.7893 12 12 28.7893 12 49.5C12 70.2107 28.7893 87 49.5 87Z" fill="url(#paint1_linear)"/>
<g id="Group_2">
<g id="Group_3">
<path id="Shape_2" fill-rule="evenodd" clip-rule="evenodd" d="M45.1187 51.7864C45.1187 52.7643 45.9102 53.5588 46.8844 53.5588C47.8585 53.5588 48.6501 52.7643 48.6501 51.7864C48.6501 50.8085 47.8585 50.0139 46.8844 50.0139C45.9102 50.0139 45.1187 50.8085 45.1187 51.7864ZM46.7017 51.8169C46.7017 51.7252 46.793 51.6336 46.8844 51.6336C46.9757 51.6336 47.0366 51.6947 47.0366 51.8169C47.0366 52.0003 46.7017 52.0003 46.7017 51.8169Z" fill="white"/>
<path id="Shape_3" fill-rule="evenodd" clip-rule="evenodd" d="M32.3931 51.7864C32.3931 52.7643 33.1846 53.5588 34.1588 53.5588C35.133 53.5588 35.9245 52.7643 35.9245 51.7864C35.9245 50.8085 35.133 50.0139 34.1588 50.0139C33.1846 50.0139 32.3931 50.8085 32.3931 51.7864ZM33.9761 51.8169C33.9761 51.7252 34.0674 51.6336 34.1588 51.6336C34.2501 51.6336 34.3414 51.6947 34.311 51.8169C34.311 52.0003 33.9761 52.0003 33.9761 51.8169Z" fill="white"/>
<path id="Shape_4" fill-rule="evenodd" clip-rule="evenodd" d="M38.7559 51.7864C38.7559 52.7643 39.5474 53.5588 40.5216 53.5588C41.4957 53.5588 42.2873 52.7643 42.2873 51.7864C42.2873 50.8085 41.4957 50.0139 40.5216 50.0139C39.5474 50.0139 38.7559 50.8085 38.7559 51.7864ZM40.3389 51.8169C40.3389 51.7252 40.4302 51.6336 40.5216 51.6336C40.6129 51.6336 40.6738 51.6947 40.6738 51.8169C40.6738 52.0003 40.3389 52.0003 40.3389 51.8169Z" fill="white"/>
</g>
<path id="Shape_5" fill-rule="evenodd" clip-rule="evenodd" d="M32.3324 62.0852V69.175L39.8823 62.0852H51.6943C53.3382 62.0852 54.6777 60.7406 54.6777 59.0904V44.758C54.6777 43.1078 53.3382 41.7632 51.6943 41.7632H29.3794C27.7355 41.7632 26.396 43.1078 26.396 44.758V59.0904C26.396 60.7406 27.7355 62.0852 29.3794 62.0852H32.3324ZM27.979 44.7886C27.979 44.0246 28.5879 43.4134 29.349 43.4134H51.6334C52.3945 43.4134 53.0033 44.0246 53.0033 44.7886V59.1209C53.0033 59.8849 52.3945 60.4961 51.6334 60.4961H39.2126L33.885 65.5079V60.4961H29.349C28.5879 60.4961 27.979 59.8849 27.979 59.1209V44.7886Z" fill="white"/>
<path id="Path" d="M66.7027 60.1903L59.1528 53.1005H54.0688C53.6426 53.1005 53.2773 52.7338 53.2773 52.306C53.2773 51.8782 53.6426 51.5115 54.0688 51.5115H59.7617L65.0892 56.5232V51.5115H69.6253C70.3863 51.5115 70.9952 50.9003 70.9952 50.1363V35.8039C70.9952 35.0399 70.3863 34.4287 69.6253 34.4287H47.3104C46.5493 34.4287 45.9405 35.0399 45.9405 35.8039V42.6187C45.9405 43.0465 45.5751 43.4132 45.1489 43.4132C44.7227 43.4132 44.3574 43.0465 44.3574 42.6187V35.8039C44.3574 34.1537 45.6969 32.8091 47.3409 32.8091H69.6557C71.2996 32.8091 72.6391 34.1537 72.6391 35.8039V50.1363C72.6391 51.7865 71.2996 53.1311 69.6557 53.1311H66.7027V60.1903Z" fill="white"/>
</g>
</g>
<defs>
<linearGradient id="paint0_linear" x1="0.135647" y1="0.246326" x2="0.135647" y2="99.6585" gradientUnits="userSpaceOnUse">
<stop offset="0.00495049" stop-color="#C6B5ED"/>
<stop offset="1" stop-color="#906DDF"/>
</linearGradient>
<linearGradient id="paint1_linear" x1="87.0171" y1="87.0215" x2="87.0171" y2="12.0077" gradientUnits="userSpaceOnUse">
<stop offset="0.00495049" stop-color="#C6B5ED"/>
<stop offset="1" stop-color="#906DDF"/>
</linearGradient>
</defs>
</svg>
