<svg width="278" height="335" viewBox="0 0 278 335" fill="none" xmlns="http://www.w3.org/2000/svg">
<g id="icon">
<path id="Oval" opacity="0.15" d="M105.5 211C163.766 211 211 163.766 211 105.5C211 47.234 163.766 0 105.5 0C47.234 0 0 47.234 0 105.5C0 163.766 47.234 211 105.5 211Z" fill="url(#paint0_linear)"/>
<path id="Oval_2" opacity="0.15" d="M216.5 335C250.466 335 278 307.466 278 273.5C278 239.534 250.466 212 216.5 212C182.534 212 155 239.534 155 273.5C155 307.466 182.534 335 216.5 335Z" fill="url(#paint1_linear)"/>
<g id="Group">
<g id="Group_2">
<path id="Oval_3" d="M149.954 273.279C209.85 273.279 258.405 224.558 258.405 164.457C258.405 104.357 209.85 55.636 149.954 55.636C90.0588 55.636 41.5039 104.357 41.5039 164.457C41.5039 224.558 90.0588 273.279 149.954 273.279Z" fill="white"/>
<path id="Shape" fill-rule="evenodd" clip-rule="evenodd" d="M40.2734 164.457C40.2734 225.127 89.4913 274.513 149.954 274.513C210.417 274.513 259.635 225.127 259.635 164.457C259.635 103.788 210.417 54.4013 149.954 54.4013C89.4913 54.4013 40.2734 103.788 40.2734 164.457ZM42.7685 164.457C42.7685 105.159 90.8585 56.9049 149.954 56.9049C209.05 56.9049 257.14 105.159 257.14 164.457C257.14 223.755 209.05 272.01 149.954 272.01C90.8585 272.01 42.7685 223.755 42.7685 164.457Z" fill="url(#paint2_linear)"/>
</g>
<path id="Oval_4" d="M149.954 248.071C195.975 248.071 233.283 210.636 233.283 164.457C233.283 118.279 195.975 80.8436 149.954 80.8436C103.933 80.8436 66.6255 118.279 66.6255 164.457C66.6255 210.636 103.933 248.071 149.954 248.071Z" fill="url(#paint3_linear)"/>
<path id="Oval_5" d="M72.9826 263.882C82.2888 263.882 89.8329 256.312 89.8329 246.974C89.8329 237.636 82.2888 230.066 72.9826 230.066C63.6765 230.066 56.1323 237.636 56.1323 246.974C56.1323 256.312 63.6765 263.882 72.9826 263.882Z" fill="url(#paint4_linear)"/>
<path id="Oval_6" d="M260.148 179.445C264.773 179.445 268.522 175.683 268.522 171.042C268.522 166.402 264.773 162.64 260.148 162.64C255.523 162.64 251.774 166.402 251.774 171.042C251.774 175.683 255.523 179.445 260.148 179.445Z" fill="url(#paint5_linear)"/>
<path id="Oval_7" d="M153.03 58.997C159.599 58.997 164.924 53.6535 164.924 47.062C164.924 40.4704 159.599 35.1269 153.03 35.1269C146.461 35.1269 141.136 40.4704 141.136 47.062C141.136 53.6535 146.461 58.997 153.03 58.997Z" fill="url(#paint6_linear)"/>
<g id="Group_3">
<path id="Path" d="M145.477 159.416C132.386 159.416 118.475 155.746 118.475 148.99H121.483C121.483 152.076 130.609 156.432 145.477 156.432C160.345 156.432 169.47 152.111 169.47 148.99H172.478C172.478 155.78 158.567 159.416 145.477 159.416Z" fill="white"/>
<path id="Path_2" d="M145.477 172.757C132.386 172.757 118.475 169.087 118.475 162.331H121.483C121.483 165.418 130.609 169.773 145.477 169.773C160.345 169.773 169.47 165.452 169.47 162.331H172.478C172.478 169.087 158.567 172.757 145.477 172.757Z" fill="white"/>
<path id="Path_3" d="M172.205 177.181L169.368 176.187C169.436 175.981 169.47 175.775 169.47 175.569V135.786H172.478V175.569C172.478 176.084 172.375 176.632 172.205 177.181Z" fill="white"/>
<path id="Path_4" d="M145.477 185.995C132.386 185.995 118.475 182.326 118.475 175.569V135.786H121.483V175.569C121.483 178.656 130.609 183.012 145.477 183.012C146.844 183.012 148.177 182.977 149.51 182.909L149.681 185.927C148.313 185.961 146.912 185.995 145.477 185.995Z" fill="white"/>
<path id="Shape_2" fill-rule="evenodd" clip-rule="evenodd" d="M118.475 135.752C118.475 142.508 132.386 146.178 145.477 146.178C158.567 146.178 172.478 142.542 172.478 135.752C172.478 128.995 158.567 125.326 145.477 125.326C132.386 125.326 118.475 128.961 118.475 135.752ZM121.483 135.786C121.483 132.665 130.609 128.344 145.477 128.344C160.345 128.344 169.47 132.665 169.47 135.786C169.47 138.907 160.345 143.228 145.477 143.228C130.609 143.228 121.483 138.872 121.483 135.786Z" fill="white"/>
<path id="Shape_3" fill-rule="evenodd" clip-rule="evenodd" d="M146.434 193.575C146.434 204.035 154.91 212.54 165.335 212.54C175.759 212.54 184.236 204.035 184.236 193.575C184.236 183.114 175.759 174.609 165.335 174.609C158.704 174.609 152.654 178.004 149.202 183.697C147.391 186.647 146.434 190.076 146.434 193.575ZM151.766 185.275C154.671 180.474 159.763 177.627 165.335 177.627C174.119 177.627 181.228 184.795 181.228 193.575C181.228 202.354 174.084 209.522 165.335 209.522C156.585 209.522 149.441 202.354 149.441 193.575C149.441 190.625 150.262 187.779 151.766 185.275Z" fill="white"/>
<g id="Group_4">
<path id="Shape_4" fill-rule="evenodd" clip-rule="evenodd" d="M160.55 186.921C160.55 189.562 162.703 191.723 165.335 191.723C167.967 191.723 170.12 189.562 170.12 186.921C170.12 184.28 167.967 182.12 165.335 182.12C162.703 182.12 160.55 184.28 160.55 186.921ZM163.558 186.887C163.558 185.892 164.344 185.104 165.335 185.104C166.326 185.104 167.112 185.927 167.112 186.887C167.112 187.882 166.326 188.67 165.335 188.67C164.344 188.67 163.558 187.882 163.558 186.887Z" fill="white"/>
<g id="Group_5">
<path id="Shape_5" fill-rule="evenodd" clip-rule="evenodd" d="M153.714 197.862C153.714 200.502 155.867 202.663 158.499 202.663C161.131 202.663 163.284 200.502 163.284 197.862C163.284 195.221 161.131 193.06 158.499 193.06C155.867 193.06 153.714 195.221 153.714 197.862ZM156.722 197.827C156.722 196.833 157.508 196.044 158.499 196.044C159.49 196.044 160.276 196.867 160.276 197.827C160.276 198.822 159.49 199.611 158.499 199.611C157.508 199.611 156.722 198.822 156.722 197.827Z" fill="white"/>
<path id="Shape_6" fill-rule="evenodd" clip-rule="evenodd" d="M167.385 197.862C167.385 200.502 169.539 202.663 172.17 202.663C174.836 202.663 176.955 200.502 176.955 197.862C176.955 195.221 174.802 193.06 172.17 193.06C169.539 193.06 167.385 195.221 167.385 197.862ZM170.393 197.827C170.393 196.833 171.179 196.044 172.17 196.044C173.162 196.044 173.982 196.867 173.948 197.827C173.948 198.822 173.162 199.611 172.17 199.611C171.179 199.611 170.393 198.822 170.393 197.827Z" fill="white"/>
</g>
<path id="Rectangle" d="M166.981 190.071L168.025 189.42L171.254 194.634L170.21 195.285L166.981 190.071Z" fill="white"/>
<path id="Rectangle_2" d="M159.034 194.696L162.261 189.48L163.305 190.131L160.078 195.347L159.034 194.696Z" fill="white"/>
<rect id="Rectangle_3" x="161.78" y="196.353" width="7.10925" height="3.01805" fill="white"/>
</g>
</g>
</g>
</g>
<defs>
<linearGradient id="paint0_linear" x1="210.971" y1="210.986" x2="210.971" y2="0.0130528" gradientUnits="userSpaceOnUse">
<stop offset="0.00495049" stop-color="#9BE2B9"/>
<stop offset="1" stop-color="#3FC779"/>
</linearGradient>
<linearGradient id="paint1_linear" x1="278.004" y1="334.984" x2="278.004" y2="211.996" gradientUnits="userSpaceOnUse">
<stop offset="0.00495049" stop-color="#9BE2B9"/>
<stop offset="1" stop-color="#3FC779"/>
</linearGradient>
<linearGradient id="paint2_linear" x1="259.623" y1="274.526" x2="259.623" y2="54.4092" gradientUnits="userSpaceOnUse">
<stop offset="0.00495049" stop-color="#9BE2B9"/>
<stop offset="1" stop-color="#3FC779"/>
</linearGradient>
<linearGradient id="paint3_linear" x1="233.279" y1="248.091" x2="233.279" y2="80.8429" gradientUnits="userSpaceOnUse">
<stop offset="0.00495049" stop-color="#9BE2B9"/>
<stop offset="1" stop-color="#3FC779"/>
</linearGradient>
<linearGradient id="paint4_linear" x1="89.8314" y1="263.875" x2="89.8314" y2="230.058" gradientUnits="userSpaceOnUse">
<stop offset="0.00495049" stop-color="#FFFAA7"/>
<stop offset="1" stop-color="#FFD85C"/>
</linearGradient>
<linearGradient id="paint5_linear" x1="268.532" y1="179.445" x2="268.532" y2="162.617" gradientUnits="userSpaceOnUse">
<stop offset="0.00495049" stop-color="#FEADAD"/>
<stop offset="1" stop-color="#E85A5A"/>
</linearGradient>
<linearGradient id="paint6_linear" x1="164.903" y1="58.9774" x2="164.903" y2="35.1225" gradientUnits="userSpaceOnUse">
<stop offset="0.00495049" stop-color="#C6B5ED"/>
<stop offset="1" stop-color="#906DDF"/>
</linearGradient>
</defs>
</svg>
