<svg width="14" height="11" viewBox="0 0 14 11" fill="none" xmlns="http://www.w3.org/2000/svg">
<path fill-rule="evenodd" clip-rule="evenodd" d="M0.590085 10.8463C0.212634 10.8463 -0.049386 10.5619 0.00784925 10.2141L1.58422 0.632116C1.64146 0.284465 1.99708 0 2.37454 0H6.06244C6.43989 0 6.64508 0.271035 6.5184 0.602442L2.8331 10.2438C2.70642 10.5752 2.29397 10.8463 1.91652 10.8463H0.590085ZM7.99787 10.8463C7.62042 10.8463 7.3584 10.5619 7.41563 10.2141L8.99187 0.632116C9.0491 0.284465 9.40473 0 9.78218 0H13.4702C13.8477 0 14.0529 0.271035 13.9262 0.602442L10.2409 10.2438C10.1142 10.5752 9.70175 10.8463 9.3243 10.8463H7.99787Z" fill="#FFD759"/>
</svg>
