<svg width="280" height="280" viewBox="0 0 280 280" fill="none" xmlns="http://www.w3.org/2000/svg">
<path fill-rule="evenodd" clip-rule="evenodd" d="M159 150C181.091 150 199 132.091 199 110C199 87.9086 181.091 70 159 70C136.909 70 119 87.9086 119 110C119 132.091 136.909 150 159 150Z" fill="white"/>
<g filter="url(#filter0_d)">
<path fill-rule="evenodd" clip-rule="evenodd" d="M160 70C137.909 70 120 87.9088 120 110C120 132.091 137.909 150 160 150C182.091 150 200 132.091 200 110C200 87.9088 182.091 70 160 70ZM147.619 90.9524L180 110L147.619 129.048V90.9524Z" fill="#906FDD"/>
</g>
<defs>
<filter id="filter0_d" x="0" y="0" width="280" height="280" filterUnits="userSpaceOnUse" color-interpolation-filters="sRGB">
<feFlood flood-opacity="0" result="BackgroundImageFix"/>
<feColorMatrix in="SourceAlpha" type="matrix" values="0 0 0 0 0 0 0 0 0 0 0 0 0 0 0 0 0 0 127 0"/>
<feOffset dx="-20" dy="30"/>
<feGaussianBlur stdDeviation="50"/>
<feColorMatrix type="matrix" values="0 0 0 0 0.460486 0 0 0 0 0.460486 0 0 0 0 0.460486 0 0 0 0.701512 0"/>
<feBlend mode="normal" in2="BackgroundImageFix" result="effect1_dropShadow"/>
<feBlend mode="normal" in="SourceGraphic" in2="effect1_dropShadow" result="shape"/>
</filter>
</defs>
</svg>
