<svg width="1600" height="518" viewBox="0 0 1600 518" fill="none" xmlns="http://www.w3.org/2000/svg">
<g id="Global/BG/First-block/Purple">
<g id="BG">
<rect id="Mask" x="-16" width="1632" height="518" fill="url(#paint0_linear)"/>
<mask id="mask0" mask-type="alpha" maskUnits="userSpaceOnUse" x="-16" y="0" width="1632" height="518">
<rect id="Mask_2" x="-16" width="1632" height="518" fill="white"/>
</mask>
<g mask="url(#mask0)">
<g id="Group 2">
<path id="Oval" opacity="0.18" fill-rule="evenodd" clip-rule="evenodd" d="M-25.1802 494.267C4.67628 494.267 28.8798 469.782 28.8798 439.578C28.8798 409.374 4.67628 384.888 -25.1802 384.888C-55.0367 384.888 -79.2402 409.374 -79.2402 439.578C-79.2402 469.782 -55.0367 494.267 -25.1802 494.267Z" fill="url(#paint1_linear)"/>
</g>
<g id="Group 24">
<path id="Oval_2" opacity="0.18" fill-rule="evenodd" clip-rule="evenodd" d="M1330.36 229.076C1359.37 229.076 1382.89 205.283 1382.89 175.934C1382.89 146.585 1359.37 122.793 1330.36 122.793C1301.34 122.793 1277.83 146.585 1277.83 175.934C1277.83 205.283 1301.34 229.076 1330.36 229.076Z" fill="url(#paint2_linear)"/>
<path id="Path" opacity="0.422201" fill-rule="evenodd" clip-rule="evenodd" d="M1541.54 372.506C1541.54 352.548 1525.55 336.391 1505.84 336.391C1486.14 336.391 1470.14 352.548 1470.14 372.506C1470.14 392.464 1486.14 408.622 1505.84 408.622C1508.28 408.622 1510.26 406.6 1510.26 404.107C1510.26 401.614 1508.28 399.593 1505.84 399.593C1490.99 399.593 1478.97 387.454 1478.97 372.506C1478.97 357.559 1490.99 345.419 1505.84 345.419C1520.69 345.419 1532.71 357.559 1532.71 372.506C1532.71 374.999 1534.68 377.02 1537.12 377.02C1539.56 377.02 1541.54 374.999 1541.54 372.506Z" fill="#8E63D5"/>
<rect id="Rectangle" opacity="0.18" width="136.181" height="136.722" transform="matrix(0.816015 -0.578031 0.569123 0.822252 1233.38 455.155)" fill="url(#paint3_linear)"/>
<path id="Path 15" fill-rule="evenodd" clip-rule="evenodd" d="M1388.2 409.137L1368.91 444.884L1412.46 441.516L1388.2 409.137Z" fill="#8E63D5"/>
<g id="Group 23 Copy">
<path id="Path 16" opacity="0.131381" fill-rule="evenodd" clip-rule="evenodd" d="M1558.14 468.645C1568.01 460.629 1575.32 457.646 1579.67 458.964C1582.03 459.682 1582.65 460.116 1594.49 468.994C1596.96 470.843 1598.93 472.271 1600.86 473.575C1609.9 479.698 1616.78 482.314 1623.09 480.326C1628.05 478.761 1630.3 477.225 1640.66 469.231C1650.01 462.016 1655.36 459.16 1661.21 459.16C1666.07 459.16 1669.93 461.549 1677.95 468.69C1678.35 469.051 1678.58 469.254 1678.76 469.415C1679.07 469.694 1679.33 469.925 1679.58 470.146C1687.87 477.477 1692.98 480.536 1699.99 480.536C1704.22 480.536 1708.38 479.153 1712.81 476.582C1715.98 474.747 1718.63 472.808 1723.61 468.859C1733.02 461.395 1736.71 459.16 1740.6 459.16C1748.01 459.16 1754.73 462.191 1760.94 468.453C1762.73 470.263 1765.64 470.258 1767.43 468.441C1769.22 466.625 1769.21 463.685 1767.42 461.875C1759.55 453.94 1750.54 449.873 1740.6 449.873C1736.62 449.873 1732.71 451.272 1728.42 453.875C1725.47 455.662 1723.53 457.122 1717.94 461.549C1708.9 468.715 1704.53 471.249 1699.99 471.249C1695.96 471.249 1692.29 469.053 1685.63 463.157C1685.39 462.942 1685.13 462.716 1684.83 462.443C1684.65 462.284 1684.42 462.083 1684.01 461.719C1679.48 457.686 1677.13 455.765 1674.11 453.896C1669.88 451.278 1665.69 449.873 1661.21 449.873C1652.67 449.873 1646 453.43 1635.09 461.846C1625.89 468.943 1623.81 470.373 1620.36 471.459C1617.62 472.321 1612.8 470.488 1605.96 465.858C1604.18 464.65 1602.32 463.301 1599.96 461.534C1599 460.816 1595.78 458.373 1595.31 458.018C1593.49 456.65 1592.12 455.642 1590.83 454.737C1587.36 452.308 1584.72 450.801 1582.3 450.068C1574.25 447.628 1564.41 451.65 1552.39 461.402C1550.42 463.007 1550.1 465.929 1551.68 467.929C1553.27 469.93 1556.16 470.25 1558.14 468.645Z" fill="url(#paint4_linear)"/>
<path id="Path 16 Copy" opacity="0.131381" fill-rule="evenodd" clip-rule="evenodd" d="M1558.14 498.769C1568.01 490.752 1575.32 487.769 1579.67 489.088C1582.03 489.806 1582.65 490.24 1594.49 499.118C1596.96 500.966 1598.93 502.394 1600.86 503.699C1609.9 509.822 1616.78 512.438 1623.09 510.45C1628.05 508.885 1630.3 507.349 1640.66 499.354C1650.01 492.139 1655.36 489.283 1661.21 489.283C1666.07 489.283 1669.93 491.672 1677.95 498.813C1678.35 499.175 1678.58 499.378 1678.76 499.539C1679.07 499.818 1679.33 500.049 1679.58 500.27C1687.87 507.6 1692.98 510.66 1699.99 510.66C1704.22 510.66 1708.38 509.276 1712.81 506.706C1715.98 504.87 1718.63 502.931 1723.61 498.983C1733.02 491.518 1736.71 489.283 1740.6 489.283C1748.01 489.283 1754.73 492.315 1760.94 498.577C1762.73 500.387 1765.64 500.382 1767.43 498.565C1769.22 496.748 1769.21 493.808 1767.42 491.998C1759.55 484.063 1750.54 479.996 1740.6 479.996C1736.62 479.996 1732.71 481.395 1728.42 483.998C1725.47 485.786 1723.53 487.246 1717.94 491.673C1708.9 498.839 1704.53 501.373 1699.99 501.373C1695.96 501.373 1692.29 499.177 1685.63 493.28C1685.39 493.066 1685.13 492.84 1684.83 492.567C1684.65 492.407 1684.42 492.206 1684.01 491.843C1679.48 487.81 1677.13 485.888 1674.11 484.019C1669.88 481.401 1665.69 479.996 1661.21 479.996C1652.67 479.996 1646 483.553 1635.09 491.97C1625.89 499.066 1623.81 500.497 1620.36 501.583C1617.62 502.445 1612.8 500.611 1605.96 495.981C1604.18 494.774 1602.32 493.425 1599.96 491.658C1599 490.94 1595.78 488.497 1595.31 488.141C1593.49 486.774 1592.12 485.766 1590.83 484.861C1587.36 482.431 1584.72 480.925 1582.3 480.192C1574.25 477.752 1564.41 481.774 1552.39 491.525C1550.42 493.13 1550.1 496.053 1551.68 498.053C1553.27 500.053 1556.16 500.374 1558.14 498.769Z" fill="url(#paint5_linear)"/>
<path id="Path 16 Copy 2" opacity="0.131381" fill-rule="evenodd" clip-rule="evenodd" d="M1558.14 528.693C1568.01 520.677 1575.32 517.693 1579.67 519.012C1582.03 519.73 1582.65 520.164 1594.49 529.042C1596.96 530.891 1598.93 532.318 1600.86 533.623C1609.9 539.746 1616.78 542.362 1623.09 540.374C1628.05 538.809 1630.3 537.273 1640.66 529.278C1650.01 522.064 1655.36 519.208 1661.21 519.208C1666.07 519.208 1669.93 521.597 1677.95 528.738C1678.35 529.099 1678.58 529.302 1678.76 529.463C1679.07 529.742 1679.33 529.973 1679.58 530.194C1687.87 537.524 1692.98 540.584 1699.99 540.584C1704.22 540.584 1708.38 539.201 1712.81 536.63C1715.98 534.795 1718.63 532.856 1723.61 528.907C1733.02 521.442 1736.71 519.208 1740.6 519.208C1748.01 519.208 1754.73 522.239 1760.94 528.501C1762.73 530.311 1765.64 530.306 1767.43 528.489C1769.22 526.673 1769.21 523.733 1767.42 521.923C1759.55 513.988 1750.54 509.921 1740.6 509.921C1736.62 509.921 1732.71 511.32 1728.42 513.922C1725.47 515.71 1723.53 517.17 1717.94 521.597C1708.9 528.763 1704.53 531.297 1699.99 531.297C1695.96 531.297 1692.29 529.101 1685.63 523.205C1685.39 522.99 1685.13 522.764 1684.83 522.491C1684.65 522.332 1684.42 522.131 1684.01 521.767C1679.48 517.734 1677.13 515.813 1674.11 513.944C1669.88 511.326 1665.69 509.921 1661.21 509.921C1652.67 509.921 1646 513.478 1635.09 521.894C1625.89 528.991 1623.81 530.421 1620.36 531.507C1617.62 532.369 1612.8 530.536 1605.96 525.906C1604.18 524.698 1602.32 523.349 1599.96 521.582C1599 520.864 1595.78 518.421 1595.31 518.065C1593.49 516.698 1592.12 515.69 1590.83 514.785C1587.36 512.356 1584.72 510.849 1582.3 510.116C1574.25 507.676 1564.41 511.698 1552.39 521.45C1550.42 523.055 1550.1 525.977 1551.68 527.977C1553.27 529.978 1556.16 530.298 1558.14 528.693Z" fill="url(#paint6_linear)"/>
</g>
</g>
</g>
</g>
<g id="Group 26">
<g id="Group 23">
<path id="Path 16_2" opacity="0.18" fill-rule="evenodd" clip-rule="evenodd" d="M114.506 457.455C124.382 449.438 131.684 446.455 136.035 447.774C138.403 448.492 139.023 448.926 150.861 457.804C153.325 459.653 155.299 461.08 157.226 462.385C166.268 468.508 173.145 471.124 179.456 469.136C184.423 467.571 186.664 466.035 197.025 458.04C206.375 450.825 211.731 447.969 217.58 447.969C222.439 447.969 226.298 450.359 234.315 457.499C234.722 457.861 234.949 458.064 235.13 458.225C235.443 458.504 235.703 458.735 235.953 458.956C244.235 466.286 249.349 469.346 256.362 469.346C260.587 469.346 264.744 467.963 269.182 465.392C272.352 463.557 274.994 461.618 279.975 457.669C289.392 450.204 293.074 447.969 296.973 447.969C304.382 447.969 311.094 451.001 317.306 457.263C319.102 459.073 322.008 459.068 323.797 457.251C325.587 455.435 325.581 452.495 323.786 450.685C315.914 442.75 306.91 438.683 296.973 438.683C292.993 438.683 289.074 440.082 284.786 442.684C281.841 444.472 279.898 445.932 274.313 450.359C265.272 457.525 260.897 460.059 256.362 460.059C252.33 460.059 248.66 457.863 241.998 451.967C241.755 451.752 241.501 451.526 241.194 451.253C241.015 451.093 240.79 450.893 240.382 450.529C235.854 446.496 233.495 444.574 230.476 442.706C226.248 440.088 222.058 438.683 217.58 438.683C209.035 438.683 202.365 442.24 191.458 450.656C182.261 457.753 180.174 459.183 176.726 460.269C173.99 461.131 169.17 459.298 162.332 454.668C160.549 453.46 158.684 452.111 156.328 450.344C155.37 449.626 152.146 447.183 151.674 446.827C149.859 445.46 148.487 444.452 147.196 443.547C143.73 441.118 141.088 439.611 138.67 438.878C130.619 436.438 120.775 440.46 108.761 450.212C106.784 451.817 106.467 454.739 108.054 456.739C109.64 458.74 112.529 459.06 114.506 457.455Z" fill="url(#paint7_linear)"/>
<path id="Path 16 Copy_2" opacity="0.18" fill-rule="evenodd" clip-rule="evenodd" d="M114.506 487.579C124.382 479.562 131.684 476.579 136.035 477.898C138.403 478.616 139.023 479.05 150.861 487.928C153.325 489.776 155.299 491.204 157.226 492.509C166.268 498.632 173.145 501.248 179.456 499.26C184.423 497.695 186.664 496.159 197.025 488.164C206.375 480.949 211.731 478.093 217.58 478.093C222.439 478.093 226.298 480.482 234.315 487.623C234.722 487.985 234.949 488.188 235.13 488.349C235.443 488.628 235.703 488.858 235.953 489.08C244.235 496.41 249.349 499.47 256.362 499.47C260.587 499.47 264.744 498.086 269.182 495.516C272.352 493.68 274.994 491.741 279.975 487.793C289.392 480.328 293.074 478.093 296.973 478.093C304.382 478.093 311.094 481.125 317.306 487.387C319.102 489.197 322.008 489.192 323.797 487.375C325.587 485.558 325.581 482.618 323.786 480.808C315.914 472.873 306.91 468.806 296.973 468.806C292.993 468.806 289.074 470.205 284.786 472.808C281.841 474.596 279.898 476.056 274.313 480.483C265.272 487.649 260.897 490.183 256.362 490.183C252.33 490.183 248.66 487.987 241.998 482.09C241.755 481.875 241.501 481.65 241.194 481.377C241.015 481.217 240.79 481.016 240.382 480.653C235.854 476.62 233.495 474.698 230.476 472.829C226.248 470.211 222.058 468.806 217.58 468.806C209.035 468.806 202.365 472.363 191.458 480.78C182.261 487.876 180.174 489.307 176.726 490.393C173.99 491.255 169.17 489.421 162.332 484.791C160.549 483.583 158.684 482.235 156.328 480.468C155.37 479.75 152.146 477.306 151.674 476.951C149.859 475.584 148.487 474.576 147.196 473.671C143.73 471.241 141.088 469.735 138.67 469.002C130.619 466.562 120.775 470.584 108.761 480.335C106.784 481.94 106.467 484.863 108.054 486.863C109.64 488.863 112.529 489.184 114.506 487.579Z" fill="url(#paint8_linear)"/>
<path id="Path 16 Copy 2_2" opacity="0.18" fill-rule="evenodd" clip-rule="evenodd" d="M114.506 517.503C124.382 509.486 131.684 506.503 136.035 507.822C138.403 508.54 139.023 508.974 150.861 517.852C153.325 519.701 155.299 521.128 157.226 522.433C166.268 528.556 173.145 531.172 179.456 529.184C184.423 527.619 186.664 526.083 197.025 518.088C206.375 510.873 211.731 508.017 217.58 508.017C222.439 508.017 226.298 510.407 234.315 517.547C234.722 517.909 234.949 518.112 235.13 518.273C235.443 518.552 235.703 518.783 235.953 519.004C244.235 526.334 249.349 529.394 256.362 529.394C260.587 529.394 264.744 528.01 269.182 525.44C272.352 523.605 274.994 521.666 279.975 517.717C289.392 510.252 293.074 508.017 296.973 508.017C304.382 508.017 311.094 511.049 317.306 517.311C319.102 519.121 322.008 519.116 323.797 517.299C325.587 515.483 325.581 512.543 323.786 510.732C315.914 502.798 306.91 498.731 296.973 498.731C292.993 498.731 289.074 500.13 284.786 502.732C281.841 504.52 279.898 505.98 274.313 510.407C265.272 517.573 260.897 520.107 256.362 520.107C252.33 520.107 248.66 517.911 241.998 512.015C241.755 511.8 241.501 511.574 241.194 511.301C241.015 511.141 240.79 510.941 240.382 510.577C235.854 506.544 233.495 504.622 230.476 502.754C226.248 500.136 222.058 498.731 217.58 498.731C209.035 498.731 202.365 502.288 191.458 510.704C182.261 517.801 180.174 519.231 176.726 520.317C173.99 521.179 169.17 519.346 162.332 514.715C160.549 513.508 158.684 512.159 156.328 510.392C155.37 509.674 152.146 507.231 151.674 506.875C149.859 505.508 148.487 504.5 147.196 503.595C143.73 501.166 141.088 499.659 138.67 498.926C130.619 496.486 120.775 500.508 108.761 510.26C106.784 511.865 106.467 514.787 108.054 516.787C109.64 518.788 112.529 519.108 114.506 517.503Z" fill="url(#paint9_linear)"/>
</g>
<path id="Path 19" opacity="0.18" fill-rule="evenodd" clip-rule="evenodd" d="M252.706 218.891L181.977 183.791L226.128 163.112L252.706 218.891Z" fill="url(#paint10_linear)"/>
<rect id="Rectangle_2" width="39.8825" height="40.1415" transform="matrix(0.880678 0.473715 -0.465244 0.885182 226.186 308.662)" fill="#8E63D5"/>
<rect id="Rectangle Copy" width="28.6336" height="28.8195" transform="matrix(0.880678 0.473715 -0.465244 0.885182 236.155 343.682)" fill="url(#paint11_linear)"/>
</g>
</g>
<defs>
<linearGradient id="paint0_linear" x1="250.754" y1="169.337" x2="250.754" y2="518" gradientUnits="userSpaceOnUse">
<stop stop-color="#A674F7"/>
<stop offset="1" stop-color="#9869E4"/>
</linearGradient>
<linearGradient id="paint1_linear" x1="25.5938" y1="386.612" x2="-79.1185" y2="386.612" gradientUnits="userSpaceOnUse">
<stop stop-color="white"/>
<stop offset="1" stop-color="#9869E4"/>
</linearGradient>
<linearGradient id="paint2_linear" x1="1283.94" y1="181.726" x2="1337.71" y2="202.624" gradientUnits="userSpaceOnUse">
<stop stop-color="white"/>
<stop offset="1" stop-color="#9869E4"/>
</linearGradient>
<linearGradient id="paint3_linear" x1="132.043" y1="2.15459" x2="0.153341" y2="2.15459" gradientUnits="userSpaceOnUse">
<stop stop-color="white"/>
<stop offset="1" stop-color="#9869E4"/>
</linearGradient>
<linearGradient id="paint4_linear" x1="1519.5" y1="464.817" x2="1524.83" y2="506.022" gradientUnits="userSpaceOnUse">
<stop stop-color="white"/>
<stop offset="1" stop-color="#9869E4"/>
</linearGradient>
<linearGradient id="paint5_linear" x1="1519.5" y1="494.94" x2="1524.83" y2="536.146" gradientUnits="userSpaceOnUse">
<stop stop-color="white"/>
<stop offset="1" stop-color="#9869E4"/>
</linearGradient>
<linearGradient id="paint6_linear" x1="1519.5" y1="524.865" x2="1524.83" y2="566.07" gradientUnits="userSpaceOnUse">
<stop stop-color="white"/>
<stop offset="1" stop-color="#9869E4"/>
</linearGradient>
<linearGradient id="paint7_linear" x1="318.508" y1="438.68" x2="107.289" y2="438.68" gradientUnits="userSpaceOnUse">
<stop stop-color="white"/>
<stop offset="1" stop-color="#9869E4"/>
</linearGradient>
<linearGradient id="paint8_linear" x1="318.508" y1="468.804" x2="107.289" y2="468.804" gradientUnits="userSpaceOnUse">
<stop stop-color="white"/>
<stop offset="1" stop-color="#9869E4"/>
</linearGradient>
<linearGradient id="paint9_linear" x1="318.508" y1="498.728" x2="107.289" y2="498.728" gradientUnits="userSpaceOnUse">
<stop stop-color="white"/>
<stop offset="1" stop-color="#9869E4"/>
</linearGradient>
<linearGradient id="paint10_linear" x1="233.914" y1="220.659" x2="245.914" y2="168.968" gradientUnits="userSpaceOnUse">
<stop stop-color="white"/>
<stop offset="1" stop-color="#9869E4"/>
</linearGradient>
<linearGradient id="paint11_linear" x1="0" y1="28.8195" x2="28.6336" y2="28.8195" gradientUnits="userSpaceOnUse">
<stop stop-color="#A06FEF"/>
<stop offset="1" stop-color="#B088F0"/>
</linearGradient>
</defs>
</svg>
